# xmcd
#
# Track frame offsets:
#	150
#	17274
#	33786
#	55548
#	71488
#	92173
#	112022
#	131993
#	150308
#	178738
#	189835
#	208492
#	231943
#	250897
#	276554
#	291488
#
# Disc length: 4174 seconds
#
# Revision: 0
# Processed by: cddbd v1.5.1PL0 Copyright (c) Steve Scherf et al.
# Submitted via: dBpowerAMP V4.0
#
DISCID=e8104c10
DTITLE=Eddie Baltimore - The Space Between
DYEAR=2004
DGENRE=Blues
TTITLE0=Seven Come Eleven
TTITLE1=Catfish
TTITLE2=Moonlight In Paradise
TTITLE3=Who's Your Daddy
TTITLE4=Lovely Mess
TTITLE5=Any Colour But Blue
TTITLE6=Goodbye
TTITLE7=She's A Spy
TTITLE8=Winter Blues
TTITLE9=Head South
TTITLE10=Rock and a Hard Place
TTITLE11=Bullfrog
TTITLE12=Shutup and Listen
TTITLE13=Cold Sidewalk
TTITLE14=What More Can I Do
TTITLE15=Redemption
EXTD=
EXTT0=
EXTT1=
EXTT2=
EXTT3=
EXTT4=
EXTT5=
EXTT6=
EXTT7=
EXTT8=
EXTT9=
EXTT10=
EXTT11=
EXTT12=
EXTT13=
EXTT14=
EXTT15=
PLAYORDER=
